
<svg
            width="22"
            height="21"
            viewBox="0 0 22 21"
            fill="none"
            xmlns="http://www.w3.org/2000/svg"
          >
            <g clip-path="url(#clip0_1686_432)">
              <path
                d="M20.9134 10.6304C20.9134 9.95058 20.8562 9.26714 20.7343 8.59839H10.9526V12.4492H16.5541C16.3217 13.6912 15.5748 14.7898 14.4812 15.488V17.9866H17.823C19.7855 16.2449 20.9134 13.6728 20.9134 10.6304Z"
                fill="#4285F4"
              />
              <path
                d="M10.9528 20.4007C13.7497 20.4007 16.1084 19.5151 17.827 17.9866L14.4851 15.488C13.5554 16.0979 12.355 16.4433 10.9566 16.4433C8.2511 16.4433 5.95716 14.6833 5.13408 12.3169H1.68555V14.8927C3.44601 18.2695 7.03173 20.4007 10.9528 20.4007V20.4007Z"
                fill="#34A853"
              />
              <path
                d="M5.13039 12.3169C4.69599 11.0749 4.69599 9.7301 5.13039 8.48814V5.91235H1.68567C0.214803 8.738 0.214803 12.067 1.68567 14.8927L5.13039 12.3169V12.3169Z"
                fill="#FBBC04"
              />
              <path
                d="M10.9528 4.35805C12.4313 4.336 13.8602 4.87247 14.931 5.85722L17.8918 3.00218C16.017 1.30459 13.5287 0.37128 10.9528 0.400675C7.03173 0.400675 3.44601 2.53185 1.68555 5.91234L5.13027 8.48813C5.94954 6.11811 8.24729 4.35805 10.9528 4.35805V4.35805Z"
                fill="#EA4335"
              />
            </g>
            <defs>
              <clipPath id="clip0_1686_432">
                <rect
                  width="20.7407"
                  height="20"
                  fill="white"
                  transform="translate(0.375 0.400002)"
                />
              </clipPath>
            </defs>
          </svg>